  0
SECTION
  2
HEADER
  9
$ACADVER
  1
AC1014
  9
$HANDSEED
  5
FFFF
  9
$MEASUREMENT
 70
     1
  0
ENDSEC
  0
SECTION
  2
TABLES
  0
TABLE
  2
VPORT
  5
8
330
0
100
AcDbSymbolTable
 70
     4
  0
VPORT
  5
2E
330
8
100
AcDbSymbolTableRecord
100
AcDbViewportTableRecord
  2
*ACTIVE
 70
     0
 10
0.0
 20
0.0
 11
1.0
 21
1.0
 12
210.0
 22
148.5
 13
0.0
 23
0.0
 14
10.0
 24
10.0
 15
10.0
 25
10.0
 16
0.0
 26
0.0
 36
1.0
 17
0.0
 27
0.0
 37
0.0
 40
341.0
 41
1.24
 42
50.0
 43
0.0
 44
0.0
 50
0.0
 51
0.0
 71
     0
 72
   100
 73
     1
 74
     3
 75
     0
 76
     0
 77
     0
 78
     0
  0
ENDTAB
  0
TABLE
  2
LTYPE
  5
5
330
0
100
AcDbSymbolTable
 70
     1
  0
LTYPE
  5
14
330
5
100
AcDbSymbolTableRecord
100
AcDbLinetypeTableRecord
  2
BYBLOCK
 70
     0
  3

 72
    65
 73
     0
 40
0.0
  0
LTYPE
  5
15
330
5
100
AcDbSymbolTableRecord
100
AcDbLinetypeTableRecord
  2
BYLAYER
 70
     0
  3

 72
    65
 73
     0
 40
0.0
  0
LTYPE
  5
16
330
5
100
AcDbSymbolTableRecord
100
AcDbLinetypeTableRecord
  2
CONTINUOUS
 70
     0
  3
Solid line
 72
    65
 73
     0
 40
0.0
  0
ENDTAB
  0
TABLE
  2
LAYER
  5
2
100
AcDbSymbolTable
 70
2
  0
LAYER
  5
50
100
AcDbSymbolTableRecord
100
AcDbLayerTableRecord
  2
0
 70
0
  6
CONTINUOUS
  0
LAYER
  5
51
100
AcDbSymbolTableRecord
100
AcDbLayerTableRecord
  2
Layer_1
 70
0
  6
CONTINUOUS
  0
ENDTAB
  0
TABLE
  2
STYLE
  5
3
330
0
100
AcDbSymbolTable
 70
     1
  0
STYLE
  5
11
330
3
100
AcDbSymbolTableRecord
100
AcDbTextStyleTableRecord
  2
STANDARD
 70
     0
 40
0.0
 41
1.0
 50
0.0
 71
     0
 42
2.5
  3
txt
  4

  0
ENDTAB
  0
TABLE
  2
VIEW
  5
6
330
0
100
AcDbSymbolTable
 70
     0
  0
ENDTAB
  0
TABLE
  2
UCS
  5
7
330
0
100
AcDbSymbolTable
 70
     0
  0
ENDTAB
  0
TABLE
  2
APPID
  5
9
330
0
100
AcDbSymbolTable
 70
     2
  0
APPID
  5
12
330
9
100
AcDbSymbolTableRecord
100
AcDbRegAppTableRecord
  2
ACAD
 70
     0
  0
ENDTAB
  0
TABLE
  2
DIMSTYLE
  5
A
330
0
100
AcDbSymbolTable
 70
     1
  0
DIMSTYLE
105
27
330
A
100
AcDbSymbolTableRecord
100
AcDbDimStyleTableRecord
  2
ISO-25
 70
     0
  3

  4

  5

  6

  7

 40
1.0
 41
2.5
 42
0.625
 43
3.75
 44
1.25
 45
0.0
 46
0.0
 47
0.0
 48
0.0
140
2.5
141
2.5
142
0.0
143
0.03937007874016
144
1.0
145
0.0
146
1.0
147
0.625
 71
     0
 72
     0
 73
     0
 74
     0
 75
     0
 76
     0
 77
     1
 78
     8
170
     0
171
     3
172
     1
173
     0
174
     0
175
     0
176
     0
177
     0
178
     0
270
     2
271
     2
272
     2
273
     2
274
     3
340
11
275
     0
280
     0
281
     0
282
     0
283
     0
284
     8
285
     0
286
     0
287
     3
288
     0
  0
ENDTAB
  0
TABLE
  2
BLOCK_RECORD
  5
1
330
0
100
AcDbSymbolTable
 70
     1
  0
BLOCK_RECORD
  5
1F
330
1
100
AcDbSymbolTableRecord
100
AcDbBlockTableRecord
  2
*MODEL_SPACE
  0
BLOCK_RECORD
  5
1B
330
1
100
AcDbSymbolTableRecord
100
AcDbBlockTableRecord
  2
*PAPER_SPACE
  0
ENDTAB
  0
ENDSEC
  0
SECTION
  2
BLOCKS
  0
BLOCK
  5
20
330
1F
100
AcDbEntity
  8
0
100
AcDbBlockBegin
  2
*MODEL_SPACE
 70
     0
 10
0.0
 20
0.0
 30
0.0
  3
*MODEL_SPACE
  1

  0
ENDBLK
  5
21
330
1F
100
AcDbEntity
  8
0
100
AcDbBlockEnd
  0
BLOCK
  5
1C
330
1B
100
AcDbEntity
 67
     1
  8
0
100
AcDbBlockBegin
  2
*PAPER_SPACE
  1

  0
ENDBLK
  5
1D
330
1B
100
AcDbEntity
 67
     1
  8
0
100
AcDbBlockEnd
  0
ENDSEC
  0
SECTION
  2
ENTITIES
  0
LWPOLYLINE
  5
100
100
AcDbEntity
  8
Layer_1
 62
7
100
AcDbPolyline
 90
120
 70
1
 10
1.417323
 20
253.949343
 30
0.0
 10
11.718402
 20
253.949343
 30
0.0
 10
22.022463
 20
253.949343
 30
0.0
 10
32.327636
 20
253.949343
 30
0.0
 10
42.632333
 20
253.949343
 30
0.0
 10
52.933736
 20
253.949343
 30
0.0
 10
63.236573
 20
253.949343
 30
0.0
 10
73.539614
 20
253.949343
 30
0.0
 10
83.844228
 20
253.949343
 30
0.0
 10
94.148531
 20
253.949343
 30
0.0
 10
104.452621
 20
253.949343
 30
0.0
 10
114.755773
 20
253.949343
 30
0.0
 10
125.060223
 20
253.949343
 30
0.0
 10
135.363500
 20
253.949343
 30
0.0
 10
145.667848
 20
253.949343
 30
0.0
 10
155.969423
 20
253.949343
 30
0.0
 10
166.270804
 20
253.949343
 30
0.0
 10
176.573017
 20
253.949343
 30
0.0
 10
186.874919
 20
253.949343
 30
0.0
 10
197.180426
 20
253.949343
 30
0.0
 10
207.484366
 20
253.949343
 30
0.0
 10
217.786279
 20
253.949343
 30
0.0
 10
228.089272
 20
253.949343
 30
0.0
 10
238.394848
 20
253.949343
 30
0.0
 10
248.701597
 20
253.949343
 30
0.0
 10
259.004176
 20
253.949343
 30
0.0
 10
269.306038
 20
253.949343
 30
0.0
 10
279.610686
 20
253.949343
 30
0.0
 10
289.914085
 20
253.949343
 30
0.0
 10
300.217455
 20
253.949343
 30
0.0
 10
310.524000
 20
253.949343
 30
0.0
 10
310.524000
 20
253.142714
 30
0.0
 10
310.524000
 20
252.331778
 30
0.0
 10
310.524000
 20
251.522745
 30
0.0
 10
310.524000
 20
250.715622
 30
0.0
 10
310.524000
 20
249.907618
 30
0.0
 10
310.524000
 20
249.098173
 30
0.0
 10
310.524000
 20
248.289718
 30
0.0
 10
310.524000
 20
247.480824
 30
0.0
 10
310.524000
 20
246.673344
 30
0.0
 10
310.524000
 20
245.867899
 30
0.0
 10
310.524000
 20
245.059155
 30
0.0
 10
310.524000
 20
244.252270
 30
0.0
 10
310.524000
 20
243.441972
 30
0.0
 10
310.524000
 20
242.633548
 30
0.0
 10
310.524000
 20
241.827403
 30
0.0
 10
310.524000
 20
241.020014
 30
0.0
 10
310.524000
 20
240.209351
 30
0.0
 10
310.524000
 20
239.402982
 30
0.0
 10
310.524000
 20
238.593356
 30
0.0
 10
310.524000
 20
237.783628
 30
0.0
 10
310.524000
 20
236.975542
 30
0.0
 10
310.524000
 20
236.167821
 30
0.0
 10
310.524000
 20
235.358938
 30
0.0
 10
310.524000
 20
234.549935
 30
0.0
 10
310.524000
 20
233.741123
 30
0.0
 10
310.524000
 20
232.934131
 30
0.0
 10
310.524000
 20
232.129831
 30
0.0
 10
310.524000
 20
231.321396
 30
0.0
 10
310.524000
 20
230.514746
 30
0.0
 10
310.524000
 20
229.705682
 30
0.0
 10
300.222926
 20
229.705682
 30
0.0
 10
289.918847
 20
229.705682
 30
0.0
 10
279.613691
 20
229.705682
 30
0.0
 10
269.308989
 20
229.705682
 30
0.0
 10
259.007589
 20
229.705682
 30
0.0
 10
248.704749
 20
229.705682
 30
0.0
 10
238.401708
 20
229.705682
 30
0.0
 10
228.097096
 20
229.705682
 30
0.0
 10
217.792793
 20
229.705682
 30
0.0
 10
207.488703
 20
229.705682
 30
0.0
 10
197.185548
 20
229.705682
 30
0.0
 10
186.881098
 20
229.705682
 30
0.0
 10
176.577822
 20
229.705682
 30
0.0
 10
166.273474
 20
229.705682
 30
0.0
 10
155.971898
 20
229.705682
 30
0.0
 10
145.670518
 20
229.705682
 30
0.0
 10
135.368304
 20
229.705682
 30
0.0
 10
125.066403
 20
229.705682
 30
0.0
 10
114.760895
 20
229.705682
 30
0.0
 10
104.456955
 20
229.705682
 30
0.0
 10
94.155042
 20
229.705682
 30
0.0
 10
83.852049
 20
229.705682
 30
0.0
 10
73.546474
 20
229.705682
 30
0.0
 10
63.239728
 20
229.705682
 30
0.0
 10
52.937148
 20
229.705682
 30
0.0
 10
42.635286
 20
229.705682
 30
0.0
 10
32.330635
 20
229.705682
 30
0.0
 10
22.027234
 20
229.705682
 30
0.0
 10
11.723855
 20
229.705682
 30
0.0
 10
1.417323
 20
229.705682
 30
0.0
 10
1.417323
 20
230.512312
 30
0.0
 10
1.417323
 20
231.323247
 30
0.0
 10
1.417323
 20
232.132280
 30
0.0
 10
1.417323
 20
232.939403
 30
0.0
 10
1.417323
 20
233.747408
 30
0.0
 10
1.417323
 20
234.556852
 30
0.0
 10
1.417323
 20
235.365307
 30
0.0
 10
1.417323
 20
236.174202
 30
0.0
 10
1.417323
 20
236.981682
 30
0.0
 10
1.417323
 20
237.787126
 30
0.0
 10
1.417323
 20
238.595871
 30
0.0
 10
1.417323
 20
239.402755
 30
0.0
 10
1.417323
 20
240.213053
 30
0.0
 10
1.417323
 20
241.021477
 30
0.0
 10
1.417323
 20
241.827622
 30
0.0
 10
1.417323
 20
242.635011
 30
0.0
 10
1.417323
 20
243.445674
 30
0.0
 10
1.417323
 20
244.252043
 30
0.0
 10
1.417323
 20
245.061669
 30
0.0
 10
1.417323
 20
245.871397
 30
0.0
 10
1.417323
 20
246.679483
 30
0.0
 10
1.417323
 20
247.487204
 30
0.0
 10
1.417323
 20
248.296088
 30
0.0
 10
1.417323
 20
249.105090
 30
0.0
 10
1.417323
 20
249.913902
 30
0.0
 10
1.417323
 20
250.720894
 30
0.0
 10
1.417323
 20
251.525194
 30
0.0
 10
1.417323
 20
252.333629
 30
0.0
 10
1.417323
 20
253.140279
 30
0.0
  0
LWPOLYLINE
  5
101
100
AcDbEntity
  8
Layer_1
 62
7
100
AcDbPolyline
 90
120
 70
1
 10
310.524000
 20
253.949343
 30
0.0
 10
322.486686
 20
253.235469
 30
0.0
 10
334.425279
 20
252.201719
 30
0.0
 10
346.331357
 20
250.832336
 30
0.0
 10
358.193839
 20
249.111641
 30
0.0
 10
369.996142
 20
247.025010
 30
0.0
 10
381.722220
 20
244.558565
 30
0.0
 10
393.360340
 20
241.698223
 30
0.0
 10
404.892245
 20
238.432428
 30
0.0
 10
416.298349
 20
234.751830
 30
0.0
 10
427.557477
 20
230.650033
 30
0.0
 10
438.653953
 20
226.121346
 30
0.0
 10
449.564901
 20
221.166051
 30
0.0
 10
460.274164
 20
215.785341
 30
0.0
 10
470.763288
 20
209.985432
 30
0.0
 10
481.011297
 20
203.778958
 30
0.0
 10
491.012863
 20
197.173769
 30
0.0
 10
500.748907
 20
190.191036
 30
0.0
 10
510.216255
 20
182.845998
 30
0.0
 10
519.410145
 20
175.158746
 30
0.0
 10
528.328535
 20
167.151129
 30
0.0
 10
536.971455
 20
158.846944
 30
0.0
 10
545.341030
 20
150.271308
 30
0.0
 10
553.445423
 20
141.445877
 30
0.0
 10
561.296088
 20
132.390057
 30
0.0
 10
568.900790
 20
123.128824
 30
0.0
 10
576.271748
 20
113.682929
 30
0.0
 10
583.426620
 20
104.066277
 30
0.0
 10
590.376860
 20
94.300753
 30
0.0
 10
597.134655
 20
84.407528
 30
0.0
 10
603.720784
 20
74.394737
 30
0.0
 10
603.720784
 20
73.588110
 30
0.0
 10
603.720784
 20
72.777175
 30
0.0
 10
603.720784
 20
71.968139
 30
0.0
 10
603.720784
 20
71.161002
 30
0.0
 10
603.720784
 20
70.353014
 30
0.0
 10
603.720784
 20
69.543553
 30
0.0
 10
603.720784
 20
68.735112
 30
0.0
 10
603.720784
 20
67.926217
 30
0.0
 10
603.720784
 20
67.118740
 30
0.0
 10
603.720784
 20
66.313276
 30
0.0
 10
603.720784
 20
65.504551
 30
0.0
 10
603.720784
 20
64.697669
 30
0.0
 10
603.720784
 20
63.887357
 30
0.0
 10
603.720784
 20
63.078945
 30
0.0
 10
603.720784
 20
62.272800
 30
0.0
 10
603.720784
 20
61.465408
 30
0.0
 10
603.720784
 20
60.654728
 30
0.0
 10
603.720784
 20
59.848356
 30
0.0
 10
603.720784
 20
59.038753
 30
0.0
 10
603.720784
 20
58.229008
 30
0.0
 10
603.720784
 20
57.420935
 30
0.0
 10
603.720784
 20
56.613203
 30
0.0
 10
603.720784
 20
55.804309
 30
0.0
 10
603.720784
 20
54.995329
 30
0.0
 10
603.720784
 20
54.186491
 30
0.0
 10
603.720784
 20
53.379524
 30
0.0
 10
603.720784
 20
52.575222
 30
0.0
 10
603.720784
 20
51.766781
 30
0.0
 10
603.720784
 20
50.960126
 30
0.0
 10
603.720784
 20
50.151061
 30
0.0
 10
595.755231
 20
58.930186
 30
0.0
 10
587.824120
 20
67.739811
 30
0.0
 10
579.905112
 20
76.559329
 30
0.0
 10
571.974312
 20
85.367962
 30
0.0
 10
564.006661
 20
94.144167
 30
0.0
 10
555.976620
 20
102.865014
 30
0.0
 10
547.861512
 20
111.503010
 30
0.0
 10
539.633584
 20
120.034772
 30
0.0
 10
531.269310
 20
128.431378
 30
0.0
 10
522.744879
 20
136.664011
 30
0.0
 10
514.037329
 20
144.703182
 30
0.0
 10
505.128321
 20
152.516222
 30
0.0
 10
495.998353
 20
160.073396
 30
0.0
 10
486.633732
 20
167.342902
 30
0.0
 10
477.032362
 20
174.288404
 30
0.0
 10
467.184690
 20
180.884619
 30
0.0
 10
457.094457
 20
187.102831
 30
0.0
 10
446.766057
 20
192.920888
 30
0.0
 10
436.213975
 20
198.318197
 30
0.0
 10
425.451477
 20
203.282368
 30
0.0
 10
414.498179
 20
207.804946
 30
0.0
 10
403.369871
 20
211.885359
 30
0.0
 10
392.090787
 20
215.525271
 30
0.0
 10
380.680743
 20
218.732743
 30
0.0
 10
369.159751
 20
221.519302
 30
0.0
 10
357.549666
 20
223.898910
 30
0.0
 10
345.867524
 20
225.888593
 30
0.0
 10
334.126705
 20
227.506983
 30
0.0
 10
322.339823
 20
228.773098
 30
0.0
 10
310.524000
 20
229.705682
 30
0.0
 10
310.524000
 20
230.512312
 30
0.0
 10
310.524000
 20
231.323247
 30
0.0
 10
310.524000
 20
232.132280
 30
0.0
 10
310.524000
 20
232.939403
 30
0.0
 10
310.524000
 20
233.747408
 30
0.0
 10
310.524000
 20
234.556852
 30
0.0
 10
310.524000
 20
235.365307
 30
0.0
 10
310.524000
 20
236.174202
 30
0.0
 10
310.524000
 20
236.981682
 30
0.0
 10
310.524000
 20
237.787126
 30
0.0
 10
310.524000
 20
238.595871
 30
0.0
 10
310.524000
 20
239.402755
 30
0.0
 10
310.524000
 20
240.213053
 30
0.0
 10
310.524000
 20
241.021477
 30
0.0
 10
310.524000
 20
241.827622
 30
0.0
 10
310.524000
 20
242.635011
 30
0.0
 10
310.524000
 20
243.445674
 30
0.0
 10
310.524000
 20
244.252043
 30
0.0
 10
310.524000
 20
245.061669
 30
0.0
 10
310.524000
 20
245.871397
 30
0.0
 10
310.524000
 20
246.679483
 30
0.0
 10
310.524000
 20
247.487204
 30
0.0
 10
310.524000
 20
248.296088
 30
0.0
 10
310.524000
 20
249.105090
 30
0.0
 10
310.524000
 20
249.913902
 30
0.0
 10
310.524000
 20
250.720894
 30
0.0
 10
310.524000
 20
251.525194
 30
0.0
 10
310.524000
 20
252.333629
 30
0.0
 10
310.524000
 20
253.140279
 30
0.0
  0
LWPOLYLINE
  5
102
100
AcDbEntity
  8
Layer_1
 62
7
100
AcDbPolyline
 90
121
 70
0
 10
603.720784
 20
74.394737
 30
0.0
 10
613.211121
 20
68.935153
 30
0.0
 10
622.830208
 20
63.707386
 30
0.0
 10
632.582353
 20
58.727140
 30
0.0
 10
642.467783
 20
54.013096
 30
0.0
 10
652.482529
 20
49.586230
 30
0.0
 10
662.626337
 20
45.466101
 30
0.0
 10
672.897534
 20
41.673231
 30
0.0
 10
683.292236
 20
38.229109
 30
0.0
 10
693.800381
 20
35.156778
 30
0.0
 10
704.419049
 20
32.476479
 30
0.0
 10
715.130636
 20
30.211228
 30
0.0
 10
725.928708
 20
28.379735
 30
0.0
 10
736.790986
 20
27.001587
 30
0.0
 10
747.702727
 20
26.092261
 30
0.0
 10
758.642560
 20
25.664740
 30
0.0
 10
769.591068
 20
25.728236
 30
0.0
 10
780.526960
 20
26.288476
 30
0.0
 10
791.427619
 20
27.346677
 30
0.0
 10
802.268069
 20
28.899383
 30
0.0
 10
813.025493
 20
30.938712
 30
0.0
 10
823.681634
 20
33.453468
 30
0.0
 10
834.218891
 20
36.428967
 30
0.0
 10
844.620595
 20
39.847294
 30
0.0
 10
854.875748
 20
43.689628
 30
0.0
 10
864.970431
 20
47.933461
 30
0.0
 10
874.897757
 20
52.557222
 30
0.0
 10
884.647918
 20
57.536334
 30
0.0
 10
894.219666
 20
62.849509
 30
0.0
 10
903.614390
 20
68.476847
 30
0.0
 10
912.827471
 20
74.394652
 30
0.0
 10
912.827471
 20
73.588025
 30
0.0
 10
912.827471
 20
72.777090
 30
0.0
 10
912.827471
 20
71.968054
 30
0.0
 10
912.827471
 20
71.160945
 30
0.0
 10
912.827471
 20
70.352929
 30
0.0
 10
912.827471
 20
69.543496
 30
0.0
 10
912.827471
 20
68.735027
 30
0.0
 10
912.827471
 20
67.926132
 30
0.0
 10
912.827471
 20
67.118655
 30
0.0
 10
912.827471
 20
66.313219
 30
0.0
 10
912.827471
 20
65.504466
 30
0.0
 10
912.827471
 20
64.697584
 30
0.0
 10
912.827471
 20
63.887301
 30
0.0
 10
912.827471
 20
63.078860
 30
0.0
 10
912.827471
 20
62.272715
 30
0.0
 10
912.827471
 20
61.465323
 30
0.0
 10
912.827471
 20
60.654671
 30
0.0
 10
912.827471
 20
59.848299
 30
0.0
 10
912.827471
 20
59.038668
 30
0.0
 10
912.827471
 20
58.228951
 30
0.0
 10
912.827471
 20
57.420850
 30
0.0
 10
912.827471
 20
56.613146
 30
0.0
 10
912.827471
 20
55.804252
 30
0.0
 10
912.827471
 20
54.995244
 30
0.0
 10
912.827471
 20
54.186435
 30
0.0
 10
912.827471
 20
53.379439
 30
0.0
 10
912.827471
 20
52.575165
 30
0.0
 10
912.827471
 20
51.766724
 30
0.0
 10
912.827471
 20
50.960069
 30
0.0
 10
912.827471
 20
50.151005
 30
0.0
 10
903.303061
 20
44.750580
 30
0.0
 10
893.658378
 20
39.569216
 30
0.0
 10
883.888658
 20
34.623553
 30
0.0
 10
873.997190
 20
29.935049
 30
0.0
 10
863.978872
 20
25.521676
 30
0.0
 10
853.833732
 20
21.404551
 30
0.0
 10
843.566901
 20
17.607146
 30
0.0
 10
833.177924
 20
14.150806
 30
0.0
 10
822.676441
 20
11.060249
 30
0.0
 10
812.068318
 20
8.358038
 30
0.0
 10
801.363959
 20
6.067020
 30
0.0
 10
790.575864
 20
4.208854
 30
0.0
 10
779.719710
 20
2.803493
 30
0.0
 10
768.810434
 20
1.868173
 30
0.0
 10
757.869524
 20
1.417436
 30
0.0
 10
746.921244
 20
1.461657
 30
0.0
 10
735.986258
 20
2.006986
 30
0.0
 10
725.086677
 20
3.054869
 30
0.0
 10
714.246964
 20
4.601991
 30
0.0
 10
703.489682
 20
6.640299
 30
0.0
 10
692.833030
 20
9.158315
 30
0.0
 10
682.299940
 20
12.139115
 30
0.0
 10
671.900617
 20
15.565720
 30
0.0
 10
661.650397
 20
19.416784
 30
0.0
 10
651.561836
 20
23.669235
 30
0.0
 10
641.643269
 20
28.299487
 30
0.0
 10
631.896907
 20
33.285713
 30
0.0
 10
622.325045
 20
38.605635
 30
0.0
 10
612.932447
 20
44.234986
 30
0.0
 10
603.720784
 20
50.150920
 30
0.0
 10
603.720784
 20
50.957546
 30
0.0
 10
603.720784
 20
51.768482
 30
0.0
 10
603.720784
 20
52.577518
 30
0.0
 10
603.720784
 20
53.384627
 30
0.0
 10
603.720784
 20
54.192643
 30
0.0
 10
603.720784
 20
55.002076
 30
0.0
 10
603.720784
 20
55.810545
 30
0.0
 10
603.720784
 20
56.619439
 30
0.0
 10
603.720784
 20
57.426917
 30
0.0
 10
603.720784
 20
58.232353
 30
0.0
 10
603.720784
 20
59.041106
 30
0.0
 10
603.720784
 20
59.847987
 30
0.0
 10
603.720784
 20
60.658271
 30
0.0
 10
603.720784
 20
61.466712
 30
0.0
 10
603.720784
 20
62.272857
 30
0.0
 10
603.720784
 20
63.080249
 30
0.0
 10
603.720784
 20
63.890901
 30
0.0
 10
603.720784
 20
64.697272
 30
0.0
 10
603.720784
 20
65.506904
 30
0.0
 10
603.720784
 20
66.316620
 30
0.0
 10
603.720784
 20
67.124721
 30
0.0
 10
603.720784
 20
67.932425
 30
0.0
 10
603.720784
 20
68.741320
 30
0.0
 10
603.720784
 20
69.550328
 30
0.0
 10
603.720784
 20
70.359137
 30
0.0
 10
603.720784
 20
71.166132
 30
0.0
 10
603.720784
 20
71.970406
 30
0.0
 10
603.720784
 20
72.778847
 30
0.0
 10
603.720784
 20
73.585502
 30
0.0
 10
603.720784
 20
74.394567
 30
0.0
  0
LWPOLYLINE
  5
103
100
AcDbEntity
  8
Layer_1
 62
7
100
AcDbPolyline
 90
120
 70
1
 10
912.827471
 20
50.151090
 30
0.0
 10
922.317808
 20
55.610674
 30
0.0
 10
931.936894
 20
60.838441
 30
0.0
 10
941.689039
 20
65.818687
 30
0.0
 10
951.574469
 20
70.532731
 30
0.0
 10
961.589216
 20
74.959597
 30
0.0
 10
971.733023
 20
79.079726
 30
0.0
 10
982.004220
 20
82.872595
 30
0.0
 10
992.398923
 20
86.316718
 30
0.0
 10
1002.907068
 20
89.389049
 30
0.0
 10
1013.525735
 20
92.069348
 30
0.0
 10
1024.237323
 20
94.334598
 30
0.0
 10
1035.035395
 20
96.166091
 30
0.0
 10
1045.897672
 20
97.544231
 30
0.0
 10
1056.809414
 20
98.453577
 30
0.0
 10
1067.749247
 20
98.881089
 30
0.0
 10
1078.697754
 20
98.817480
 30
0.0
 10
1089.633647
 20
98.257246
 30
0.0
 10
1100.534305
 20
97.199053
 30
0.0
 10
1111.374756
 20
95.646359
 30
0.0
 10
1122.132179
 20
93.607030
 30
0.0
 10
1132.788321
 20
91.092246
 30
0.0
 10
1143.325578
 20
88.116746
 30
0.0
 10
1153.727282
 20
84.698419
 30
0.0
 10
1163.982434
 20
80.856085
 30
0.0
 10
1174.077118
 20
76.612252
 30
0.0
 10
1184.004444
 20
71.988491
 30
0.0
 10
1193.754605
 20
67.009408
 30
0.0
 10
1203.326353
 20
61.696205
 30
0.0
 10
1212.721077
 20
56.068866
 30
0.0
 10
1221.934157
 20
50.151061
 30
0.0
 10
1221.934157
 20
50.957688
 30
0.0
 10
1221.934157
 20
51.768624
 30
0.0
 10
1221.934157
 20
52.577660
 30
0.0
 10
1221.934157
 20
53.384769
 30
0.0
 10
1221.934157
 20
54.192784
 30
0.0
 10
1221.934157
 20
55.002217
 30
0.0
 10
1221.934157
 20
55.810687
 30
0.0
 10
1221.934157
 20
56.619581
 30
0.0
 10
1221.934157
 20
57.427058
 30
0.0
 10
1221.934157
 20
58.232494
 30
0.0
 10
1221.934157
 20
59.041247
 30
0.0
 10
1221.934157
 20
59.848129
 30
0.0
 10
1221.934157
 20
60.658413
 30
0.0
 10
1221.934157
 20
61.466854
 30
0.0
 10
1221.934157
 20
62.272998
 30
0.0
 10
1221.934157
 20
63.080391
 30
0.0
 10
1221.934157
 20
63.891043
 30
0.0
 10
1221.934157
 20
64.697414
 30
0.0
 10
1221.934157
 20
65.507046
 30
0.0
 10
1221.934157
 20
66.316762
 30
0.0
 10
1221.934157
 20
67.124863
 30
0.0
 10
1221.934157
 20
67.932567
 30
0.0
 10
1221.934157
 20
68.741461
 30
0.0
 10
1221.934157
 20
69.550469
 30
0.0
 10
1221.934157
 20
70.359279
 30
0.0
 10
1221.934157
 20
71.166274
 30
0.0
 10
1221.934157
 20
71.970548
 30
0.0
 10
1221.934157
 20
72.778989
 30
0.0
 10
1221.934157
 20
73.585644
 30
0.0
 10
1221.934157
 20
74.394709
 30
0.0
 10
1212.409748
 20
79.795134
 30
0.0
 10
1202.765064
 20
84.976498
 30
0.0
 10
1192.995345
 20
89.922161
 30
0.0
 10
1183.103877
 20
94.610665
 30
0.0
 10
1173.085559
 20
99.024060
 30
0.0
 10
1162.940419
 20
103.141171
 30
0.0
 10
1152.673587
 20
106.938584
 30
0.0
 10
1142.284611
 20
110.394904
 30
0.0
 10
1131.783127
 20
113.485482
 30
0.0
 10
1121.175005
 20
116.187693
 30
0.0
 10
1110.470646
 20
118.478699
 30
0.0
 10
1099.682551
 20
120.336866
 30
0.0
 10
1088.826397
 20
121.742215
 30
0.0
 10
1077.917121
 20
122.677549
 30
0.0
 10
1066.976211
 20
123.128277
 30
0.0
 10
1056.027931
 20
123.083972
 30
0.0
 10
1045.092945
 20
122.538662
 30
0.0
 10
1034.193364
 20
121.490770
 30
0.0
 10
1023.353650
 20
119.943660
 30
0.0
 10
1012.596368
 20
117.905332
 30
0.0
 10
1001.939716
 20
115.387330
 30
0.0
 10
991.406627
 20
112.406516
 30
0.0
 10
981.007304
 20
108.979920
 30
0.0
 10
970.757083
 20
105.128844
 30
0.0
 10
960.668523
 20
100.876405
 30
0.0
 10
950.749956
 20
96.246150
 30
0.0
 10
941.003594
 20
91.259943
 30
0.0
 10
931.431732
 20
85.940022
 30
0.0
 10
922.039134
 20
80.310671
 30
0.0
 10
912.827471
 20
74.394737
 30
0.0
 10
912.827471
 20
73.588110
 30
0.0
 10
912.827471
 20
72.777175
 30
0.0
 10
912.827471
 20
71.968139
 30
0.0
 10
912.827471
 20
71.161030
 30
0.0
 10
912.827471
 20
70.353014
 30
0.0
 10
912.827471
 20
69.543581
 30
0.0
 10
912.827471
 20
68.735112
 30
0.0
 10
912.827471
 20
67.926217
 30
0.0
 10
912.827471
 20
67.118740
 30
0.0
 10
912.827471
 20
66.313304
 30
0.0
 10
912.827471
 20
65.504551
 30
0.0
 10
912.827471
 20
64.697669
 30
0.0
 10
912.827471
 20
63.887386
 30
0.0
 10
912.827471
 20
63.078945
 30
0.0
 10
912.827471
 20
62.272800
 30
0.0
 10
912.827471
 20
61.465408
 30
0.0
 10
912.827471
 20
60.654756
 30
0.0
 10
912.827471
 20
59.848384
 30
0.0
 10
912.827471
 20
59.038753
 30
0.0
 10
912.827471
 20
58.229036
 30
0.0
 10
912.827471
 20
57.420935
 30
0.0
 10
912.827471
 20
56.613231
 30
0.0
 10
912.827471
 20
55.804337
 30
0.0
 10
912.827471
 20
54.995329
 30
0.0
 10
912.827471
 20
54.186520
 30
0.0
 10
912.827471
 20
53.379524
 30
0.0
 10
912.827471
 20
52.575250
 30
0.0
 10
912.827471
 20
51.766809
 30
0.0
 10
912.827471
 20
50.960154
 30
0.0
  0
ENDSEC
  0
SECTION
  2
OBJECTS
  0
DICTIONARY
  5
C
330
0
100
AcDbDictionary
  3
ACAD_GROUP
350
D
  3
ACAD_MLINESTYLE
350
17
  0
DICTIONARY
  5
D
330
C
100
AcDbDictionary
  0
DICTIONARY
  5
1A
330
C
100
AcDbDictionary
  0
DICTIONARY
  5
17
330
C
100
AcDbDictionary
  3
STANDARD
350
18
  0
DICTIONARY
  5
19
330
C
100
AcDbDictionary
  0
ENDSEC
  0
EOF
