  0
SECTION
  2
HEADER
  9
$ACADVER
  1
AC1014
  9
$HANDSEED
  5
FFFF
  9
$MEASUREMENT
 70
     1
  0
ENDSEC
  0
SECTION
  2
TABLES
  0
TABLE
  2
VPORT
  5
8
330
0
100
AcDbSymbolTable
 70
     4
  0
VPORT
  5
2E
330
8
100
AcDbSymbolTableRecord
100
AcDbViewportTableRecord
  2
*ACTIVE
 70
     0
 10
0.0
 20
0.0
 11
1.0
 21
1.0
 12
210.0
 22
148.5
 13
0.0
 23
0.0
 14
10.0
 24
10.0
 15
10.0
 25
10.0
 16
0.0
 26
0.0
 36
1.0
 17
0.0
 27
0.0
 37
0.0
 40
341.0
 41
1.24
 42
50.0
 43
0.0
 44
0.0
 50
0.0
 51
0.0
 71
     0
 72
   100
 73
     1
 74
     3
 75
     0
 76
     0
 77
     0
 78
     0
  0
ENDTAB
  0
TABLE
  2
LTYPE
  5
5
330
0
100
AcDbSymbolTable
 70
     1
  0
LTYPE
  5
14
330
5
100
AcDbSymbolTableRecord
100
AcDbLinetypeTableRecord
  2
BYBLOCK
 70
     0
  3

 72
    65
 73
     0
 40
0.0
  0
LTYPE
  5
15
330
5
100
AcDbSymbolTableRecord
100
AcDbLinetypeTableRecord
  2
BYLAYER
 70
     0
  3

 72
    65
 73
     0
 40
0.0
  0
LTYPE
  5
16
330
5
100
AcDbSymbolTableRecord
100
AcDbLinetypeTableRecord
  2
CONTINUOUS
 70
     0
  3
Solid line
 72
    65
 73
     0
 40
0.0
  0
ENDTAB
  0
TABLE
  2
LAYER
  5
2
100
AcDbSymbolTable
 70
2
  0
LAYER
  5
50
100
AcDbSymbolTableRecord
100
AcDbLayerTableRecord
  2
0
 70
0
  6
CONTINUOUS
  0
LAYER
  5
51
100
AcDbSymbolTableRecord
100
AcDbLayerTableRecord
  2
Layer_1
 70
0
  6
CONTINUOUS
  0
ENDTAB
  0
TABLE
  2
STYLE
  5
3
330
0
100
AcDbSymbolTable
 70
     1
  0
STYLE
  5
11
330
3
100
AcDbSymbolTableRecord
100
AcDbTextStyleTableRecord
  2
STANDARD
 70
     0
 40
0.0
 41
1.0
 50
0.0
 71
     0
 42
2.5
  3
txt
  4

  0
ENDTAB
  0
TABLE
  2
VIEW
  5
6
330
0
100
AcDbSymbolTable
 70
     0
  0
ENDTAB
  0
TABLE
  2
UCS
  5
7
330
0
100
AcDbSymbolTable
 70
     0
  0
ENDTAB
  0
TABLE
  2
APPID
  5
9
330
0
100
AcDbSymbolTable
 70
     2
  0
APPID
  5
12
330
9
100
AcDbSymbolTableRecord
100
AcDbRegAppTableRecord
  2
ACAD
 70
     0
  0
ENDTAB
  0
TABLE
  2
DIMSTYLE
  5
A
330
0
100
AcDbSymbolTable
 70
     1
  0
DIMSTYLE
105
27
330
A
100
AcDbSymbolTableRecord
100
AcDbDimStyleTableRecord
  2
ISO-25
 70
     0
  3

  4

  5

  6

  7

 40
1.0
 41
2.5
 42
0.625
 43
3.75
 44
1.25
 45
0.0
 46
0.0
 47
0.0
 48
0.0
140
2.5
141
2.5
142
0.0
143
0.03937007874016
144
1.0
145
0.0
146
1.0
147
0.625
 71
     0
 72
     0
 73
     0
 74
     0
 75
     0
 76
     0
 77
     1
 78
     8
170
     0
171
     3
172
     1
173
     0
174
     0
175
     0
176
     0
177
     0
178
     0
270
     2
271
     2
272
     2
273
     2
274
     3
340
11
275
     0
280
     0
281
     0
282
     0
283
     0
284
     8
285
     0
286
     0
287
     3
288
     0
  0
ENDTAB
  0
TABLE
  2
BLOCK_RECORD
  5
1
330
0
100
AcDbSymbolTable
 70
     1
  0
BLOCK_RECORD
  5
1F
330
1
100
AcDbSymbolTableRecord
100
AcDbBlockTableRecord
  2
*MODEL_SPACE
  0
BLOCK_RECORD
  5
1B
330
1
100
AcDbSymbolTableRecord
100
AcDbBlockTableRecord
  2
*PAPER_SPACE
  0
ENDTAB
  0
ENDSEC
  0
SECTION
  2
BLOCKS
  0
BLOCK
  5
20
330
1F
100
AcDbEntity
  8
0
100
AcDbBlockBegin
  2
*MODEL_SPACE
 70
     0
 10
0.0
 20
0.0
 30
0.0
  3
*MODEL_SPACE
  1

  0
ENDBLK
  5
21
330
1F
100
AcDbEntity
  8
0
100
AcDbBlockEnd
  0
BLOCK
  5
1C
330
1B
100
AcDbEntity
 67
     1
  8
0
100
AcDbBlockBegin
  2
*PAPER_SPACE
  1

  0
ENDBLK
  5
1D
330
1B
100
AcDbEntity
 67
     1
  8
0
100
AcDbBlockEnd
  0
ENDSEC
  0
SECTION
  2
ENTITIES
  0
LWPOLYLINE
  5
100
100
AcDbEntity
  8
Layer_1
 62
7
100
AcDbPolyline
 90
89
 70
0
 10
6.071803
 20
2.410716
 30
0.0
 10
9.028505
 20
2.414684
 30
0.0
 10
11.986688
 20
2.430842
 30
0.0
 10
14.944992
 20
2.459387
 30
0.0
 10
17.901884
 20
2.500036
 30
0.0
 10
23.045635
 20
2.592842
 30
0.0
 10
28.189638
 20
2.692990
 30
0.0
 10
33.333114
 20
2.784634
 30
0.0
 10
38.482469
 20
2.857201
 30
0.0
 10
43.974992
 20
2.912080
 30
0.0
 10
49.467283
 20
2.976625
 30
0.0
 10
54.961673
 20
3.097551
 30
0.0
 10
60.447039
 20
3.348332
 30
0.0
 10
63.771531
 20
3.624795
 30
0.0
 10
67.080129
 20
4.063652
 30
0.0
 10
70.337820
 20
4.773325
 30
0.0
 10
73.438053
 20
5.982531
 30
0.0
 10
75.035254
 20
7.079485
 30
0.0
 10
76.316726
 20
8.529423
 30
0.0
 10
77.204089
 20
10.247678
 30
0.0
 10
77.768070
 20
12.098424
 30
0.0
 10
78.181551
 20
14.352497
 30
0.0
 10
78.413907
 20
16.627836
 30
0.0
 10
78.518222
 20
18.914391
 30
0.0
 10
78.526726
 20
21.205755
 30
0.0
 10
78.448547
 20
23.686294
 30
0.0
 10
78.277731
 20
26.160511
 30
0.0
 10
78.008100
 20
28.623796
 30
0.0
 10
77.633816
 20
31.071750
 30
0.0
 10
77.178512
 20
33.362739
 30
0.0
 10
76.607306
 20
35.631575
 30
0.0
 10
75.888774
 20
37.855633
 30
0.0
 10
74.955319
 20
40.000195
 30
0.0
 10
73.909590
 20
41.654928
 30
0.0
 10
72.538415
 20
43.051365
 30
0.0
 10
70.909240
 20
44.140479
 30
0.0
 10
69.151873
 20
44.999994
 30
0.0
 10
66.180634
 20
46.128280
 30
0.0
 10
63.138271
 20
47.043717
 30
0.0
 10
60.047215
 20
47.784742
 30
0.0
 10
56.919923
 20
48.348210
 30
0.0
 10
53.675249
 20
48.725904
 30
0.0
 10
50.416311
 20
48.928382
 30
0.0
 10
47.149362
 20
49.006335
 30
0.0
 10
43.884232
 20
49.017957
 30
0.0
 10
41.023998
 20
49.013989
 30
0.0
 10
38.167447
 20
48.984650
 30
0.0
 10
35.311558
 20
48.897485
 30
0.0
 10
32.455797
 20
48.705494
 30
0.0
 10
30.218145
 20
48.438329
 30
0.0
 10
28.001948
 20
48.043933
 30
0.0
 10
25.812434
 20
47.508335
 30
0.0
 10
23.661085
 20
46.830572
 30
0.0
 10
21.686270
 20
46.077316
 30
0.0
 10
19.750071
 20
45.217791
 30
0.0
 10
17.863693
 20
44.262431
 30
0.0
 10
16.027177
 20
43.214632
 30
0.0
 10
14.367464
 20
42.155719
 30
0.0
 10
12.769500
 20
41.002654
 30
0.0
 10
11.257021
 20
39.738492
 30
0.0
 10
9.866409
 20
38.348666
 30
0.0
 10
8.661302
 20
36.851031
 30
0.0
 10
7.637998
 20
35.221226
 30
0.0
 10
6.798719
 20
33.492135
 30
0.0
 10
6.116151
 20
31.696648
 30
0.0
 10
5.429149
 20
29.425720
 30
0.0
 10
4.839653
 20
27.125790
 30
0.0
 10
4.294176
 20
24.812736
 30
0.0
 10
3.750026
 20
22.500675
 30
0.0
 10
3.252963
 20
20.506822
 30
0.0
 10
2.758280
 20
18.507016
 30
0.0
 10
2.324137
 20
16.498057
 30
0.0
 10
2.008956
 20
14.464644
 30
0.0
 10
1.853844
 20
12.543849
 30
0.0
 10
1.825384
 20
10.620215
 30
0.0
 10
1.925447
 20
8.694456
 30
0.0
 10
2.187369
 20
6.786133
 30
0.0
 10
2.423126
 20
5.789237
 30
0.0
 10
2.743166
 20
4.816647
 30
0.0
 10
3.155732
 20
3.880879
 30
0.0
 10
3.660491
 20
2.991271
 30
0.0
 10
4.102900
 20
2.522971
 30
0.0
 10
4.754381
 20
2.424495
 30
0.0
 10
5.412039
 20
2.411739
 30
0.0
 10
6.071655
 20
2.410710
 30
0.0
 10
6.071652
 20
2.410699
 30
0.0
 10
6.071652
 20
2.410699
 30
0.0
 10
6.071652
 20
2.410699
 30
0.0
 10
6.071652
 20
2.410699
 30
0.0
  0
ENDSEC
  0
SECTION
  2
OBJECTS
  0
DICTIONARY
  5
C
330
0
100
AcDbDictionary
  3
ACAD_GROUP
350
D
  3
ACAD_MLINESTYLE
350
17
  0
DICTIONARY
  5
D
330
C
100
AcDbDictionary
  0
DICTIONARY
  5
1A
330
C
100
AcDbDictionary
  0
DICTIONARY
  5
17
330
C
100
AcDbDictionary
  3
STANDARD
350
18
  0
DICTIONARY
  5
19
330
C
100
AcDbDictionary
  0
ENDSEC
  0
EOF
